<svg width="151" height="80" viewBox="0 0 151 80" fill="none" xmlns="http://www.w3.org/2000/svg">
<g id="Group 2">
<line id="Line 1" x1="10.1689" y1="1.15362e-08" x2="10.1689" y2="79.0321" stroke="white" stroke-width="0.5"/>
<line id="Line 2" x1="20.4131" y1="1.15362e-08" x2="20.4131" y2="79.0321" stroke="white" stroke-width="0.5"/>
<line id="Line 3" x1="30.6572" y1="1.15362e-08" x2="30.6572" y2="79.0321" stroke="white" stroke-width="0.5"/>
<line id="Line 4" x1="40.9023" y1="1.15362e-08" x2="40.9023" y2="79.0321" stroke="white" stroke-width="0.5"/>
<line id="Line 5" x1="51.1465" y1="1.15362e-08" x2="51.1465" y2="79.0321" stroke="white" stroke-width="0.5"/>
<line id="Line 19" x1="77.0918" y1="6.87695" x2="2.22766" y2="6.87695" stroke="white" stroke-width="0.5"/>
<line id="Line 26" x1="150.842" y1="6.87695" x2="75.9777" y2="6.87695" stroke="white" stroke-width="0.5"/>
<line id="Line 6" x1="61.3916" y1="1.15362e-08" x2="61.3916" y2="79.0321" stroke="white" stroke-width="0.5"/>
<line id="Line 20" x1="76.7207" y1="17.6846" x2="1.85657" y2="17.6846" stroke="white" stroke-width="0.5"/>
<line id="Line 27" x1="150.471" y1="17.6846" x2="75.6066" y2="17.6846" stroke="white" stroke-width="0.5"/>
<line id="Line 7" x1="71.6357" y1="1.15362e-08" x2="71.6357" y2="79.0321" stroke="white" stroke-width="0.5"/>
<line id="Line 21" x1="76.3496" y1="28.4922" x2="1.48547" y2="28.4922" stroke="white" stroke-width="0.5"/>
<line id="Line 28" x1="150.1" y1="28.4922" x2="75.2355" y2="28.4922" stroke="white" stroke-width="0.5"/>
<line id="Line 8" x1="81.8809" y1="1.15362e-08" x2="81.8809" y2="79.0321" stroke="white" stroke-width="0.5"/>
<line id="Line 22" x1="75.9785" y1="39.3003" x2="1.11438" y2="39.3003" stroke="white" stroke-width="0.5"/>
<line id="Line 29" x1="149.729" y1="39.3003" x2="74.8644" y2="39.3003" stroke="white" stroke-width="0.5"/>
<line id="Line 9" x1="92.125" y1="1.15362e-08" x2="92.125" y2="79.0321" stroke="white" stroke-width="0.5"/>
<line id="Line 23" x1="75.6064" y1="50.1084" x2="0.74231" y2="50.1084" stroke="white" stroke-width="0.5"/>
<line id="Line 30" x1="149.357" y1="50.1084" x2="74.4933" y2="50.1084" stroke="white" stroke-width="0.5"/>
<line id="Line 10" x1="102.37" y1="1.15362e-08" x2="102.37" y2="79.0321" stroke="white" stroke-width="0.5"/>
<line id="Line 24" x1="75.2354" y1="60.916" x2="0.371216" y2="60.916" stroke="white" stroke-width="0.5"/>
<line id="Line 31" x1="148.985" y1="60.916" x2="74.1212" y2="60.916" stroke="white" stroke-width="0.5"/>
<line id="Line 11" x1="112.614" y1="1.15362e-08" x2="112.614" y2="79.0321" stroke="white" stroke-width="0.5"/>
<line id="Line 25" x1="74.8643" y1="71.7236" x2="0.00012207" y2="71.7236" stroke="white" stroke-width="0.5"/>
<line id="Line 32" x1="148.614" y1="71.7236" x2="73.7501" y2="71.7236" stroke="white" stroke-width="0.5"/>
<line id="Line 12" x1="122.859" y1="1.15362e-08" x2="122.859" y2="79.0321" stroke="white" stroke-width="0.5"/>
<line id="Line 13" x1="133.104" y1="1.15362e-08" x2="133.104" y2="79.0321" stroke="white" stroke-width="0.5"/>
<line id="Line 14" x1="143.349" y1="1.15362e-08" x2="143.349" y2="79.0321" stroke="white" stroke-width="0.5"/>
</g>
</svg>
