<svg width="87" height="103" viewBox="0 0 87 103" fill="none" xmlns="http://www.w3.org/2000/svg">
<g id="harvard_business_school__boston_ma_logo.svg" clip-path="url(#clip0_64_4770)">
<g id="layer1">
<path id="path8130" d="M84.8746 28.083C84.8746 60.1408 67.6634 85.0524 43.4981 100.465C19.3351 85.0524 2.125 60.1408 2.125 28.083H84.8746Z" fill="white"/>
<path id="path8142" d="M59.8382 28.083H84.8746C84.8746 60.6452 67.6623 85.2344 43.4981 100.647C19.3351 85.2344 2.125 60.6452 2.125 28.083H26.519" stroke="black" stroke-width="5.1439" stroke-linecap="square"/>
<path id="path8154" d="M84.8747 27.5312C84.8747 28.4042 84.8218 27.7155 84.8172 28.0829C84.215 27.7777 83.4875 28.0829 82.7681 28.0829C80.0685 28.0829 78.3228 30.445 78.3228 32.9038C78.3228 33.4117 78.4135 34.2547 78.563 34.6981C78.0021 34.4366 77.3815 34.2742 76.7276 34.2742C74.2705 34.2742 72.2811 36.2701 72.2811 38.73C72.2811 39.5615 72.5144 40.3309 72.9086 40.9942C72.2329 40.5796 71.4445 40.3309 70.5952 40.3309C67.7726 40.3309 66.1476 42.5835 66.1476 45.29C66.1476 46.0927 66.2107 46.2331 66.5831 46.8861C65.9016 46.4646 65.2282 46.2919 64.3708 46.2919C61.9137 46.2919 59.9267 48.7899 59.9267 51.2498C59.9267 51.9823 60.0094 52.2368 60.3209 52.8437C59.7221 52.5385 59.1394 52.5305 58.42 52.5305C55.9629 52.5305 53.9747 54.7555 53.9747 57.2143C53.9747 59.6754 55.9629 61.6689 58.42 61.6689C59.1084 61.6689 59.7531 61.5065 60.3381 61.2267C60.0198 61.8394 59.9692 62.3023 59.9692 63.0394C59.9692 65.4971 61.9608 67.4929 64.4145 67.4929C65.1891 67.4929 65.7603 67.5285 66.3935 67.1808C65.8798 67.8971 66.0568 68.5582 66.0568 69.3678C66.0568 71.8289 68.4127 73.4574 70.8675 73.4574C71.1962 73.4574 71.5042 73.2132 71.8122 73.1464C68.261 78.5109 63.7376 83.9802 59.0981 88.4383C60.0025 87.6045 61.1598 86.3595 61.1598 85.0293C61.1598 82.5141 59.1245 80.4745 56.6145 80.4745C55.4055 80.4745 54.6171 80.525 53.8023 81.2956C54.4355 80.5274 54.809 79.5243 54.809 78.4475C54.809 75.9876 52.8185 73.9975 50.3637 73.9975C49.2892 73.9975 48.3054 74.3637 47.5377 75.0029C48.0227 74.2912 48.3089 73.4159 48.3089 72.4854C48.3089 70.1832 47.3906 68.01 43.4981 68.01C41.2479 68.01 39.5125 70.1348 39.5125 72.4416C39.5125 73.3699 39.7975 74.2439 40.2836 74.9568C39.5136 74.3211 38.5322 73.9503 37.4576 73.9503C35.0017 73.9503 33.0123 75.9415 33.0123 78.4015C33.0123 79.4806 33.3835 80.4791 34.0202 81.2553C33.2054 80.4791 32.0964 80.0184 30.8839 80.0184C28.3762 80.0184 26.3421 82.0557 26.3421 84.5698C26.3421 85.8988 26.996 87.6045 27.9004 88.4383C23.2609 83.9802 19.1029 79.0614 15.5529 73.6969C15.8609 73.766 16.4435 73.8685 16.7699 73.8685C19.2259 73.8685 21.2152 71.8773 21.2152 69.4139C21.2152 68.602 20.9819 67.8372 20.6015 67.1808C21.2371 67.5286 21.9485 67.7244 22.7219 67.7244C25.1756 67.7244 27.1661 65.7274 27.1661 63.2686C27.1661 62.5304 26.9776 61.8394 26.6615 61.2267C27.2431 61.5065 27.8901 61.6689 28.5773 61.6689C31.0345 61.6689 33.025 59.6754 33.025 57.2143C33.025 54.7555 31.0345 52.7585 28.5773 52.7585C27.8602 52.7585 27.1833 52.9531 26.5845 53.2549C26.896 52.6514 27.073 51.9823 27.073 51.2498C27.073 48.7899 25.0836 46.7963 22.6277 46.7963C21.7692 46.7963 20.9578 47.0589 20.2786 47.4804C20.6498 46.8274 20.8498 46.0927 20.8498 45.29C20.8498 42.83 18.8593 40.8319 16.4045 40.8319C15.554 40.8319 14.7645 41.0818 14.0899 41.501C14.4841 40.8319 14.7162 40.066 14.7162 39.2345C14.7162 36.7757 12.7269 34.7787 10.2709 34.7787C9.5124 34.7787 8.79067 34.9987 8.16317 35.3349C8.49531 34.7119 8.67574 34.0278 8.67574 33.2712C8.67574 30.8124 6.68524 28.0829 4.22928 28.0829C3.5133 28.0829 2.78352 27.7777 2.18131 28.0829C2.16637 26.9232 2.125 28.934 2.125 27.5312H27.6016C26.9776 28.8027 26.5133 29.3624 26.5133 30.43C26.5133 32.89 28.5038 34.8835 30.9586 34.8835C31.8792 34.8835 32.7181 34.606 33.426 34.1257C33.002 34.8075 32.7376 35.6194 32.7376 36.4831C32.7376 38.9454 34.7281 40.9378 37.183 40.9378C38.1529 40.9378 39.0505 40.6257 39.7814 40.0959C39.324 40.7961 39.0539 41.6369 39.0539 42.5352C39.0539 44.9986 41.0433 46.9944 43.4981 46.9944C45.954 46.9944 47.9434 44.9986 47.9434 42.5352C47.9434 41.6369 47.6986 40.8376 47.2378 40.1374C47.8859 40.5025 48.6548 40.7558 49.4501 40.7558C51.906 40.7558 53.8954 38.7612 53.8954 36.2978C53.8954 35.6275 53.7678 34.9825 53.5046 34.4113C54.2114 34.8916 54.7068 34.8835 55.6262 34.8835C58.0821 34.8835 59.8428 32.89 59.8428 30.43C59.8428 29.3624 59.2865 28.8027 58.6648 27.5312H84.8747Z" fill="black"/>
<path id="path8158" d="M60.4327 33.9585C59.9259 33.9585 59.4682 34.2385 59.2763 35.2577C58.8947 37.2789 58.1735 38.2508 57.3495 39.0132C56.7496 39.5649 55.9095 39.58 55.613 39.5639C55.3154 39.5465 55.0177 39.5313 54.8947 40.2729C54.7695 41.018 55.2063 41.743 55.4568 42.0723C55.7004 42.3994 55.8552 42.3069 56.1356 42.0903C56.6999 41.6561 57.3113 40.9649 57.802 40.2566C58.3019 39.5345 58.5907 39.8788 58.2401 40.5859C57.8908 41.293 57.1707 42.2962 56.6294 42.8317C56.234 43.2221 56.3128 43.4737 56.4714 43.7674C56.6288 44.0599 57.1185 44.5282 57.2794 44.6492C57.4357 44.7678 58.0825 45.1507 58.5077 44.318C58.9272 43.49 59.2605 41.9334 59.3122 41.2931C59.365 40.6735 59.7843 40.7733 59.8383 41.3111C59.8636 41.5725 59.8526 41.6734 59.8526 42.3656C59.8526 43.0566 59.6431 43.9377 59.3121 44.7876C58.9788 45.6341 59.2768 45.6847 59.5043 45.808C59.733 45.9289 59.9775 45.9969 60.4326 45.9969C60.8889 45.9969 61.133 45.9289 61.3628 45.808C61.5915 45.6847 61.89 45.6341 61.5568 44.7876C61.2223 43.9377 61.0109 43.0566 61.0109 42.3656C61.0109 41.6734 61.0035 41.5725 61.0288 41.3111C61.0805 40.7732 61.5016 40.6735 61.5567 41.2931C61.6062 41.9334 61.9417 43.49 62.3612 44.318C62.783 45.1507 63.4302 44.7678 63.5877 44.6492C63.7463 44.5282 64.2371 44.0599 64.3957 43.7674C64.5532 43.4737 64.6342 43.2221 64.2377 42.8317C63.6964 42.2962 62.9768 41.293 62.6252 40.5859C62.2735 39.8788 62.5623 39.5345 63.0633 40.2566C63.5518 40.9649 64.1671 41.6561 64.728 42.0903C65.0141 42.3068 65.1655 42.3993 65.4103 42.0723C65.6563 41.743 66.096 41.018 65.9742 40.2729C65.8501 39.5312 65.4817 39.3765 65.1841 39.3569C64.6956 39.3235 63.8417 39.3534 63.2429 38.8045C62.4189 38.0432 61.9735 37.2789 61.5908 35.2577C61.4001 34.2385 60.9407 33.9585 60.4327 33.9585ZM26.3825 34.2338C25.8722 34.2338 25.4162 34.5115 25.2243 35.533C24.8427 37.5542 24.1197 38.5271 23.2957 39.2849C22.6992 39.8354 21.8569 39.8553 21.5592 39.8392C21.2604 39.8219 20.9651 39.8054 20.8409 40.5482C20.7203 41.2921 21.1582 42.0182 21.403 42.3476C21.6489 42.6759 21.8026 42.5821 22.0854 42.3656C22.6462 41.9337 23.261 41.239 23.7518 40.5319C24.2517 39.8087 24.5404 40.15 24.1899 40.8594C23.8394 41.57 23.1198 42.5732 22.5774 43.1088C22.182 43.4969 22.2619 43.749 22.4194 44.0427C22.578 44.3375 23.067 44.8012 23.2256 44.9244C23.3831 45.0419 24.0326 45.4267 24.4521 44.5952C24.8727 43.7671 25.2073 42.2106 25.2602 41.5702C25.3096 40.9483 25.734 41.0509 25.7845 41.5864C25.8098 41.8479 25.8024 41.9483 25.8024 42.6427C25.8024 43.3326 25.5934 44.2171 25.2601 45.0612C24.9257 45.91 25.2247 45.9634 25.4523 46.0797C25.681 46.2053 25.9251 46.2741 26.3825 46.2741C26.8376 46.2741 27.0826 46.2052 27.309 46.0797C27.5389 45.9634 27.8374 45.91 27.503 45.0612C27.1685 44.2171 26.9607 43.3326 26.9607 42.6427C26.9607 41.9483 26.9524 41.8479 26.9786 41.5864C27.0303 41.0509 27.4512 40.9484 27.503 41.5702C27.5547 42.2106 27.8897 43.7671 28.3092 44.5952C28.731 45.4267 29.3789 45.0419 29.5375 44.9244C29.6949 44.8012 30.1863 44.3375 30.3438 44.0427C30.5024 43.749 30.5799 43.4969 30.1857 43.1088C29.6433 42.5732 28.926 41.57 28.5732 40.8594C28.2238 40.15 28.5103 39.8087 29.0113 40.5319C29.5021 41.239 30.1151 41.9337 30.676 42.3656C30.9598 42.5821 31.1142 42.6759 31.3601 42.3476C31.6061 42.0182 32.0452 41.2921 31.9222 40.5482C31.7992 39.8053 31.4327 39.6529 31.1339 39.6322C30.6443 39.5989 29.7892 39.6305 29.1927 39.0798C28.3675 38.3162 27.9204 37.5542 27.5389 35.533C27.3458 34.5115 26.8905 34.2338 26.3825 34.2338ZM57.0855 35.551C56.7373 35.551 56.7058 35.8952 56.8449 36.296C56.9816 36.6933 57.1901 37.0715 57.2579 37.4009C57.3268 37.7314 57.4142 37.8868 57.6889 37.5574L57.7284 37.5516C57.9525 37.1877 58.1777 36.7681 58.3317 36.2452C58.4823 35.7269 58.4312 35.5506 57.9313 35.5506L57.0855 35.551ZM62.7402 35.551C62.269 35.551 62.2206 35.7274 62.3631 36.2456C62.5044 36.7685 62.7166 37.1881 62.9269 37.552L62.9665 37.5579C63.2274 37.8872 63.3092 37.7318 63.3723 37.4013C63.439 37.0719 63.6339 36.6937 63.7638 36.2964C63.8925 35.8956 63.8616 35.5514 63.5375 35.5514L62.7402 35.551ZM23.0317 35.8245C22.6869 35.8245 22.6543 36.1728 22.7911 36.5713C22.9301 36.9709 23.1364 37.3463 23.2077 37.678C23.2755 38.0062 23.3622 38.1615 23.6368 37.831L23.6781 37.8275C23.9034 37.4647 24.1291 37.0444 24.2797 36.5192C24.4325 36.001 24.3792 35.8246 23.8792 35.8246L23.0317 35.8245ZM28.6882 35.8245C28.2147 35.8245 28.1697 36.0009 28.3111 36.5191C28.4547 37.0443 28.6653 37.4646 28.8767 37.8274L28.9163 37.8308C29.1771 38.1614 29.2565 38.0061 29.3221 37.6779C29.3864 37.3462 29.5807 36.9708 29.7118 36.5712C29.8428 36.1727 29.8084 35.8244 29.4855 35.8244L28.6882 35.8245ZM43.4992 50.5623C42.9912 50.5623 42.534 50.8376 42.3409 51.8615C41.9582 53.8827 41.2382 54.8493 40.4142 55.6152C39.8165 56.1657 38.976 56.1837 38.6795 56.1676C38.3795 56.1492 38.0835 56.1344 37.9594 56.8784C37.8353 57.6235 38.2755 58.3461 38.5215 58.6743C38.7651 59.006 38.92 58.9106 39.2038 58.6941C39.7647 58.2576 40.3789 57.5663 40.8685 56.8569C41.3695 56.1359 41.6571 56.4769 41.3066 57.1897C40.9549 57.8969 40.2383 58.9018 39.6959 59.4373C39.3005 59.8231 39.3804 60.0746 39.5378 60.3694C39.6964 60.6631 40.1873 61.1332 40.3459 61.253C40.5011 61.3716 41.1488 61.7522 41.5706 60.9219C41.9901 60.0938 42.3246 58.5373 42.3787 57.897C42.4281 57.2774 42.8513 57.3771 42.903 57.9149C42.9283 58.1717 42.9209 58.2784 42.9209 58.9694C42.9209 59.6593 42.7096 60.5427 42.3786 61.3915C42.0442 62.2357 42.3421 62.2897 42.5708 62.4118C42.7995 62.5316 43.0429 62.6008 43.4991 62.6008C43.9566 62.6008 44.2016 62.5316 44.4257 62.4118C44.6544 62.2897 44.9554 62.2357 44.6233 61.3915C44.29 60.5427 44.0774 59.6593 44.0774 58.9694C44.0774 58.2784 44.068 58.1717 44.0935 57.9149C44.1476 57.3771 44.5693 57.2773 44.6233 57.897C44.675 58.5373 45.0084 60.0938 45.4313 60.9219C45.8508 61.7522 46.5002 61.3716 46.6542 61.253C46.8128 61.1332 47.3042 60.6631 47.4605 60.3694C47.6202 60.0746 47.6985 59.8231 47.3043 59.4373C46.7607 58.9018 46.0411 57.8969 45.6917 57.1897C45.3366 56.4769 45.63 56.1359 46.1299 56.8569C46.6206 57.5663 47.233 58.2576 47.7927 58.6941C48.0777 58.9106 48.2332 59.006 48.4769 58.6743C48.7251 58.3461 49.1619 57.6235 49.0389 56.8784C48.9183 56.1344 48.5489 55.9796 48.2524 55.9589C47.7628 55.9278 46.9076 55.9571 46.3076 55.4064C45.4836 54.6475 45.0417 53.8827 44.6556 51.8615C44.4648 50.8376 44.0071 50.5623 43.4992 50.5623ZM40.1502 52.153C39.8066 52.153 39.7716 52.5007 39.9096 52.898C40.0475 53.2976 40.2536 53.6748 40.3226 54.0065C40.3927 54.3312 40.4789 54.4911 40.7535 54.1594L40.7967 54.1536C41.0219 53.7897 41.2447 53.3717 41.3964 52.8454C41.5493 52.326 41.4966 52.1526 40.9978 52.1526L40.1502 52.153ZM45.8049 52.153C45.3337 52.153 45.2836 52.3264 45.4296 52.8458C45.5709 53.3721 45.7837 53.7901 45.9952 54.154L46.0329 54.1598C46.2915 54.4915 46.3744 54.3317 46.4387 54.0069C46.5054 53.6752 46.6992 53.298 46.8302 52.8984C46.9624 52.5011 46.928 52.1534 46.6039 52.1534L45.8049 52.153ZM60.1598 67.5331C59.6495 67.5331 59.1946 67.8102 59.0015 68.8306C58.6188 70.8529 57.8982 71.824 57.0765 72.5807C56.4766 73.1335 55.6348 73.1546 55.3383 73.1385C55.0395 73.1199 54.7407 73.1007 54.62 73.8457C54.497 74.5897 54.9343 75.3153 55.1802 75.647C55.4273 75.974 55.5805 75.8778 55.8644 75.6615C56.4241 75.2273 57.0383 74.5391 57.529 73.8296C58.029 73.1064 58.3189 73.4507 57.9672 74.159C57.6155 74.8661 56.8982 75.871 56.3546 76.4065C55.9593 76.7957 56.0392 77.0438 56.1966 77.3386C56.3552 77.6323 56.8461 78.1024 57.0047 78.2222C57.1598 78.3419 57.8064 78.7232 58.2294 77.8929C58.65 77.0636 58.9834 75.5088 59.0374 74.8662C59.0892 74.2466 59.5096 74.3486 59.5636 74.8842C59.5889 75.1479 59.5815 75.2488 59.5815 75.9386C59.5815 76.6331 59.3684 77.5154 59.0374 78.3607C58.7018 79.2095 59.002 79.2613 59.2295 79.3811C59.4582 79.5031 59.7034 79.57 60.1597 79.57C60.616 79.57 60.8599 79.5031 61.0863 79.3811C61.3161 79.2613 61.6158 79.2095 61.2802 78.3607C60.9492 77.5154 60.7379 76.6331 60.7379 75.9386C60.7379 75.2488 60.7285 75.1479 60.7541 74.8842C60.8058 74.3486 61.2285 74.2466 61.2803 74.8662C61.332 75.5088 61.6666 77.0636 62.0883 77.8929C62.509 78.7232 63.1579 78.3419 63.313 78.2222C63.4716 78.1024 63.9636 77.6323 64.1211 77.3386C64.2797 77.0438 64.3584 76.7957 63.9631 76.4065C63.4195 75.871 62.7017 74.8661 62.3523 74.159C61.9995 73.4507 62.2882 73.1064 62.7905 73.8296C63.2812 74.5391 63.8924 75.2273 64.4533 75.6615C64.7371 75.878 64.8897 75.9742 65.1356 75.647C65.3816 75.3153 65.823 74.5897 65.6977 73.8457C65.5759 73.1006 65.2077 72.9505 64.9112 72.9297C64.4204 72.8931 63.5647 72.9294 62.9682 72.3773C62.1431 71.6172 61.6989 70.8529 61.3162 68.8306C61.1242 67.8102 60.6677 67.5331 60.1598 67.5331ZM26.932 67.8085C26.4229 67.8085 25.9657 68.0862 25.7737 69.1077C25.3922 71.1289 24.6692 72.0983 23.8451 72.8596C23.2475 73.41 22.4075 73.4311 22.1087 73.4138C21.811 73.3929 21.5134 73.3772 21.3904 74.121C21.2674 74.8661 21.7065 75.5939 21.9525 75.9187C22.1984 76.2503 22.3521 76.155 22.6348 75.9384C23.1968 75.5054 23.8094 74.8131 24.3013 74.1048C24.8023 73.3827 25.0888 73.7211 24.7394 74.4305C24.3889 75.141 23.6705 76.1443 23.1269 76.6798C22.7338 77.0703 22.8114 77.3219 22.9688 77.6156C23.1263 77.9081 23.6165 78.3746 23.7751 78.4955C23.9337 78.6164 24.5816 78.9978 25.0034 78.1698C25.424 77.3348 25.7561 75.7816 25.8079 75.1413C25.8607 74.5194 26.2823 74.6231 26.334 75.1575C26.3593 75.4201 26.3519 75.521 26.3519 76.212C26.3519 76.9053 26.1423 77.7871 25.8078 78.6359C25.4745 79.4824 25.7724 79.5335 26 79.6544C26.2287 79.7754 26.4768 79.8434 26.9319 79.8434C27.3882 79.8434 27.6316 79.7754 27.8603 79.6544C28.089 79.5335 28.3857 79.4824 28.0525 78.6359C27.7192 77.7871 27.5102 76.9053 27.5102 76.212C27.5102 75.521 27.4999 75.4201 27.5263 75.1575C27.578 74.6232 28.0019 74.5195 28.0525 75.1413C28.1042 75.7816 28.4399 77.3348 28.8605 78.1698C29.2812 78.9978 29.9289 78.6164 30.0852 78.4955C30.2427 78.3746 30.7347 77.9081 30.8933 77.6156C31.0507 77.3219 31.1306 77.0703 30.7353 76.6798C30.1928 76.1443 29.4744 75.141 29.1227 74.4305C28.7733 73.7211 29.0617 73.3827 29.5627 74.1048C30.0499 74.8131 30.6653 75.5054 31.2273 75.9384C31.5089 76.1549 31.6649 76.2503 31.9097 75.9187C32.1556 75.5939 32.5929 74.8661 32.4699 74.121C32.3469 73.377 31.981 73.2246 31.6834 73.2051C31.195 73.1684 30.3369 73.2048 29.7404 72.6509C28.9164 71.8896 28.4688 71.1289 28.0884 69.1077C27.8953 68.0862 27.4411 67.8085 26.932 67.8085ZM56.8108 69.1239C56.4637 69.1239 56.4298 69.4681 56.5665 69.8689C56.709 70.2662 56.9142 70.6439 56.9831 70.9755C57.0533 71.3026 57.1378 71.4592 57.4159 71.1321L57.4554 71.1228C57.6772 70.7624 57.9042 70.3427 58.057 69.8164C58.2076 69.2993 58.157 69.1236 57.6548 69.1236L56.8108 69.1239ZM62.4654 69.1239C61.9942 69.1239 61.9447 69.2995 62.0883 69.8166C62.2309 70.343 62.4448 70.7626 62.654 71.1231L62.6899 71.1323C62.9508 71.4594 63.0344 71.3029 63.0976 70.9758C63.1642 70.6441 63.3603 70.2664 63.489 69.8691C63.6189 69.4683 63.5856 69.1241 63.2592 69.1241L62.4654 69.1239ZM23.583 69.3992C23.2371 69.3992 23.2021 69.7457 23.3424 70.1442C23.478 70.545 23.6864 70.922 23.7554 71.249C23.8243 71.5796 23.9105 71.7361 24.1863 71.4056L24.2276 71.4021C24.4529 71.037 24.6757 70.6143 24.8274 70.0903C24.9791 69.5721 24.9287 69.3993 24.4287 69.3993L23.583 69.3992ZM29.2377 69.3992C28.7665 69.3992 28.7181 69.5719 28.8606 70.0902C29.0042 70.6142 29.2148 71.0369 29.4262 71.402L29.4657 71.4055C29.7255 71.736 29.8061 71.5795 29.8716 71.2489C29.9382 70.9219 30.1314 70.5448 30.2613 70.144C30.39 69.7456 30.3591 69.3991 30.035 69.3991L29.2377 69.3992Z" fill="white"/>
<path id="path8216" d="M2.125 2.12988H84.8746V27.9974H2.125V2.12988Z" fill="#B7133F"/>
<path id="path8226" d="M2.125 2.12988H84.8747V27.9974H2.125V2.12988Z" stroke="black" stroke-width="5.32817"/>
<g id="g8784">
<path id="path8238" d="M17.7993 9.72316C17.7993 8.19605 19.0336 6.95801 20.5575 6.95801H27.3829V9.62641H28.4908C28.9827 9.62641 29.3838 10.0272 29.3838 10.5201C29.3838 11.0142 28.9827 11.4149 28.4908 11.4149H27.3829V17.589H28.4908C28.9827 17.589 29.3838 17.9909 29.3838 18.4839C29.3838 18.9779 28.9827 19.3776 28.4908 19.3776H27.3829V22.2648H19.1037C18.8716 22.7508 18.3739 23.0882 17.7993 23.0882C17.2224 23.0882 16.7282 22.7508 16.4926 22.2648H8.21569V19.3776H7.10781C6.61248 19.3776 6.21484 18.9779 6.21484 18.4839C6.21484 17.9909 6.61248 17.589 7.10781 17.589H8.21569V11.4149H7.10781C6.61248 11.4149 6.21484 11.0142 6.21484 10.5201C6.21484 10.0272 6.61248 9.62641 7.10781 9.62641H8.21569V6.95801H15.04C16.5639 6.95801 17.7993 8.19605 17.7993 9.72316Z" fill="white"/>
<path id="path8242" d="M17.7993 9.72316C17.7993 8.19605 19.0336 6.95801 20.5575 6.95801H27.3829V9.62641H28.4908C28.9827 9.62641 29.3838 10.0272 29.3838 10.5201C29.3838 11.0142 28.9827 11.4149 28.4908 11.4149H27.3829V17.589H28.4908C28.9827 17.589 29.3838 17.9909 29.3838 18.4839C29.3838 18.9779 28.9827 19.3776 28.4908 19.3776H27.3829V22.2648H19.1037C18.8716 22.7508 18.3739 23.0882 17.7993 23.0882C17.2224 23.0882 16.7282 22.7508 16.4926 22.2648H8.21569V19.3776H7.10781C6.61248 19.3776 6.21484 18.9779 6.21484 18.4839C6.21484 17.9909 6.61248 17.589 7.10781 17.589H8.21569V11.4149H7.10781C6.61248 11.4149 6.21484 11.0142 6.21484 10.5201C6.21484 10.0272 6.61248 9.62641 7.10781 9.62641H8.21569V6.95801H15.04C16.5639 6.95801 17.7993 8.19605 17.7993 9.72316ZM17.7993 9.72316V20.1837" stroke="black" stroke-width="0.709367"/>
<path id="path8246" d="M20.761 12.8512C20.7771 13.1218 20.8633 13.1737 21.1345 13.1737C21.4069 13.1737 21.4736 13.1737 21.5908 12.9698C21.7103 12.766 22.1505 12.2569 22.1505 12.9698V13.9199C22.1505 14.6317 21.6494 14.1744 21.5575 13.9199C21.4759 13.6977 21.4069 13.6723 21.1345 13.6723C20.8633 13.6723 20.7438 13.6989 20.7277 13.9706C20.676 14.9127 20.676 15.7695 20.7277 16.244C20.7461 16.4306 20.8288 16.5158 21.0495 16.5158H21.5908C22.4206 16.5158 22.5906 16.024 22.7263 15.4816C22.9297 14.6639 23.2676 14.7848 23.2676 15.4643V16.7196C23.2676 17.1261 22.8791 16.9407 22.6745 16.9292L20.091 16.9329C19.8416 16.9329 19.7451 16.9347 19.4957 16.9536C19.2475 16.9685 19.2072 16.7659 19.3612 16.63C19.5164 16.4941 19.5681 16.4791 19.5739 15.9517V11.2356C19.5683 10.707 19.5164 10.6908 19.3612 10.5549C19.2072 10.4202 19.2475 10.2152 19.4957 10.2336C19.7451 10.2497 19.8416 10.2498 20.091 10.2498H22.5068C22.7102 10.237 23.0986 10.0517 23.0986 10.4594V11.7124C23.0986 12.1039 22.6918 12.2398 22.555 11.6974C22.4206 11.1538 22.4206 10.594 21.5908 10.594H21.0495C20.8288 10.594 20.7737 10.6782 20.761 10.8647C20.7105 11.6974 20.7358 12.4089 20.761 12.8512Z" fill="black"/>
<path id="path8250" d="M9.7041 21.0755L11.2464 19.7016M9.7041 21.0755V8.24712L10.8545 7.05859H11.2464V19.7016M9.7041 21.0755H16.4445M11.2464 19.7016H16.2755C16.9858 19.7016 17.4443 19.9216 17.5788 20.1922M19.1038 22.2652C19.1958 22.074 19.2475 21.8621 19.2475 21.6364C19.2475 20.8337 18.5993 20.183 17.7994 20.183C16.9984 20.183 16.3491 20.8337 16.3491 21.6364C16.3491 21.8621 16.4008 22.074 16.4927 22.2652M18.0189 20.1922C18.1557 19.9216 18.612 19.7016 19.3233 19.7016H24.3525M24.3525 19.7016V7.05859H24.7421L25.8925 8.24712V21.0755M24.3525 19.7016L25.8925 21.0755M25.8925 21.0755H19.1533" stroke="black" stroke-width="0.709367"/>
<path id="path8254" d="M14.81 16.4095C14.6985 16.8379 14.5399 17.1189 14.2606 17.1189C13.9814 17.1189 13.9044 16.8218 13.7929 16.391L12.6057 11.235C12.4931 10.7064 12.4322 10.6903 12.2471 10.5544C12.0633 10.4197 12.0587 10.2147 12.3161 10.2331C12.5735 10.2492 12.6712 10.2492 12.924 10.2492C13.1769 10.2492 13.2757 10.2492 13.5274 10.2331C13.7779 10.2147 13.8584 10.4197 13.732 10.5544C13.6044 10.6903 13.5527 10.7064 13.6607 11.235L14.3491 14.4954C14.4583 15.0482 14.7157 14.9123 14.8353 14.5L15.8351 11.235C15.9179 10.7064 15.7432 10.6903 15.6443 10.5544C15.5455 10.4197 15.6098 10.2147 15.8018 10.2331C15.9948 10.2492 16.0696 10.2492 16.2661 10.2492C16.4626 10.2492 16.5373 10.2492 16.7361 10.2331C16.9349 10.2147 16.9395 10.4611 16.7971 10.597C16.6534 10.7329 16.6051 10.7191 16.3937 11.235L14.81 16.4095Z" fill="black"/>
</g>
<g id="g8791">
<path id="path8258" d="M42.8569 23.0882C43.4316 23.0882 43.9269 22.7508 44.159 22.2648H51.5602V19.3787H52.6669C53.1611 19.3787 53.5599 18.978 53.5599 18.4839C53.5599 17.991 53.1611 17.589 52.6669 17.589H51.5602V11.415H52.6669C53.1611 11.415 53.5599 11.0142 53.5599 10.5213C53.5599 10.0272 53.1611 9.62644 52.6669 9.62644H51.5602V6.95801H45.614C44.0889 6.95801 42.8569 8.19605 42.8569 9.72316C42.8569 8.19605 41.6203 6.95801 40.0976 6.95801H33.2722V9.62644H32.1654C31.6701 9.62644 31.2725 10.0272 31.2725 10.5213C31.2725 11.0142 31.6701 11.415 32.1654 11.415H33.2722V17.589H32.1654C31.6701 17.589 31.2725 17.991 31.2725 18.4839C31.2725 18.978 31.6701 19.3787 32.1654 19.3787H33.2722V22.2648H41.5514C41.7847 22.7508 42.28 23.0882 42.8569 23.0882Z" fill="white"/>
<path id="path8262" d="M42.8569 9.72316C42.8569 8.19605 44.0889 6.95801 45.614 6.95801H51.5602V9.62644H52.6669C53.1611 9.62644 53.5599 10.0272 53.5599 10.5213C53.5599 11.0142 53.1611 11.415 52.6669 11.415H51.5602V17.589H52.6669C53.1611 17.589 53.5599 17.991 53.5599 18.4839C53.5599 18.978 53.1611 19.3787 52.6669 19.3787H51.5602V22.2648H44.159C43.9269 22.7508 43.4316 23.0882 42.8569 23.0882C42.28 23.0882 41.7847 22.7508 41.5514 22.2648H33.2722V19.3787H32.1654C31.6701 19.3787 31.2725 18.978 31.2725 18.4839C31.2725 17.991 31.6701 17.589 32.1654 17.589H33.2722V11.415H32.1654C31.6701 11.415 31.2725 11.0142 31.2725 10.5213C31.2725 10.0272 31.6701 9.62644 32.1654 9.62644H33.2722V6.95801H40.0976C41.6203 6.95801 42.8569 8.19605 42.8569 9.72316ZM42.8569 9.72316V20.1837M44.1613 22.266C44.2533 22.0748 44.305 21.8617 44.305 21.6372C44.305 20.8345 43.6557 20.1837 42.8569 20.1837M42.8569 20.1837C42.057 20.1837 41.4066 20.8345 41.4066 21.6372C41.4066 21.8617 41.4594 22.0748 41.5514 22.266M42.6363 20.193C42.4984 19.9212 42.0444 19.7024 41.333 19.7024H36.3027M36.3027 19.7024V7.05937H35.9131L34.7616 8.2479V21.0763M36.3027 19.7024L34.7616 21.0763M34.7616 21.0763H41.502M43.0776 20.193C43.2109 19.9212 43.6683 19.7024 44.3797 19.7024H48.5296M48.5296 19.7024V7.05937H48.9169L50.0696 8.2479V21.0763M48.5296 19.7024L50.0696 21.0763M50.0696 21.0763H44.2096" stroke="black" stroke-width="0.709367"/>
<path id="path8266" d="M38.8513 11.9471L38.8605 12.9479C38.8605 13.1183 38.9789 13.2703 39.334 13.2703C39.6891 13.2703 40.4695 13.0665 40.4695 11.9632C40.4695 10.8611 39.9098 10.6906 39.5696 10.6388C39.2329 10.5881 38.8513 10.6054 38.8513 11.1662V11.9471ZM38.233 16.9868C38.0135 16.9868 37.7595 16.9868 37.5389 17.0029C37.3194 17.0202 37.2838 16.8175 37.4205 16.6804C37.5561 16.5468 37.709 16.5272 37.709 16.0021V11.0637C37.709 10.8438 37.6918 10.7252 37.5056 10.572C37.3194 10.42 37.5561 10.2334 37.8262 10.2334C38.0963 10.2334 38.8778 10.2495 39.3168 10.2495C41.0786 10.2495 41.6532 10.8438 41.6532 11.878C41.6532 12.6588 41.1717 13.1494 40.604 13.389C40.4431 13.4569 40.3925 13.5663 40.3925 13.6515C40.3925 13.7368 40.4074 13.7794 40.4844 13.9072C40.5615 14.0327 41.6279 16.1449 41.7716 16.3418C41.9164 16.5376 42.0014 16.6217 42.1014 16.6977C42.1658 16.7449 42.1623 16.9948 41.8061 16.9948H40.8763C40.8763 16.9948 40.8155 17.0109 40.7062 16.8255C40.5959 16.639 39.326 13.9314 39.2076 13.7368L38.8433 13.6941L38.833 16.002C38.833 16.5272 38.9812 16.5122 39.1352 16.6458C39.2892 16.7817 39.2444 17.0201 38.9916 17.0028C38.7411 16.9867 38.4847 16.9868 38.233 16.9868Z" fill="black"/>
<path id="path8270" d="M46.5981 16.0531C46.6027 16.5794 46.6555 16.5955 46.8072 16.7326C46.9624 16.8673 46.9256 17.0711 46.6728 17.0539C46.4234 17.0388 46.3269 17.0389 46.0775 17.0389C45.8304 17.0389 45.7338 17.0388 45.4822 17.0539C45.2351 17.0712 45.196 16.8673 45.35 16.7326C45.504 16.5955 45.558 16.5794 45.5615 16.0531V11.3359C45.5578 10.8084 45.504 10.7934 45.35 10.6575C45.196 10.5205 45.2351 10.3178 45.4822 10.3339C45.7338 10.3523 45.8304 10.3523 46.0775 10.3523C46.3269 10.3523 46.4234 10.3523 46.6728 10.3339C46.9256 10.3178 46.9624 10.5205 46.8072 10.6575C46.6555 10.7934 46.6027 10.8084 46.5981 11.3359V16.0531Z" fill="black"/>
</g>
<g id="g8797">
<path id="path8274" d="M67.9936 8.9838C68.3062 7.80795 69.3819 6.95801 70.6622 6.95801H78.7047V9.62644H79.8126C80.3067 9.62644 80.7067 10.0272 80.7067 10.5213C80.7067 11.0142 80.3067 11.415 79.8126 11.415H78.7047V17.589H79.8126C80.3067 17.589 80.7067 17.991 80.7067 18.4839C80.7067 18.978 80.3067 19.3787 79.8126 19.3787H78.7047V22.2648H69.2095C68.9763 22.7508 68.4809 23.0882 67.904 23.0882C67.3282 23.0882 66.8329 22.7508 66.5973 22.2648H57.5079V19.3787H56.3965C55.9058 19.3787 55.5059 18.978 55.5059 18.4839C55.5059 17.991 55.9058 17.589 56.3965 17.589H57.5079V11.415H56.3965C55.9058 11.415 55.5059 11.0142 55.5059 10.5213C55.5059 10.0272 55.9058 9.62644 56.3965 9.62644H57.5079V6.95801H65.1446C66.4226 6.95801 67.5006 7.80795 67.8132 8.9838H67.9936Z" fill="white"/>
<path id="path8278" d="M58.9984 21.0763L60.5373 19.7024M58.9984 21.0763V8.2479L60.1488 7.05937H60.5373V19.7024M58.9984 21.0763H66.5467M60.5373 19.7024H66.3812C67.0903 19.7024 67.5477 19.9212 67.6833 20.193M69.2107 22.266C69.3026 22.0748 69.3521 21.8617 69.3521 21.6372C69.3521 20.8345 68.7039 20.1837 67.904 20.1837C67.103 20.1837 66.4559 20.8345 66.4559 21.6372C66.4559 21.8617 66.5054 22.0748 66.5973 22.266M68.1258 20.193C68.258 19.9212 68.7154 19.7024 69.4279 19.7024H75.6741M75.6741 19.7024V7.05937H76.066L77.2187 8.2479V21.0763M75.6741 19.7024L77.2187 21.0763M77.2187 21.0763H69.259M67.9936 8.9838C68.3062 7.80795 69.3819 6.95801 70.6622 6.95801H78.7047V9.62644H79.8126C80.3067 9.62644 80.7067 10.0272 80.7067 10.5213C80.7067 11.0142 80.3067 11.415 79.8126 11.415H78.7047V17.589H79.8126C80.3067 17.589 80.7067 17.991 80.7067 18.4839C80.7067 18.978 80.3067 19.3787 79.8126 19.3787H78.7047V22.2648H69.2095C68.9763 22.7508 68.4809 23.0882 67.904 23.0882C67.3282 23.0882 66.8329 22.7508 66.5973 22.2648H57.5079V19.3787H56.3965C55.9058 19.3787 55.5059 18.978 55.5059 18.4839C55.5059 17.991 55.9058 17.589 56.3965 17.589H57.5079V11.415H56.3965C55.9058 11.415 55.5059 11.0142 55.5059 10.5213C55.5059 10.0272 55.9058 9.62644 56.3965 9.62644H57.5079V6.95801H65.1446C66.4226 6.95801 67.5006 7.80795 67.8132 8.9838H67.9936Z" stroke="black" stroke-width="0.709367"/>
<path id="path8282" d="M67.411 12.6438C67.642 11.8422 67.7914 11.8134 67.9661 12.6991L68.2948 14.0546C68.412 14.3943 68.3787 14.4623 67.7408 14.4623C66.9237 14.4623 66.872 14.4058 67.0202 14.065L67.411 12.6438ZM68.5407 15.0738L68.7568 15.9617C68.8636 16.4869 68.8107 16.503 68.6843 16.6401C68.5579 16.776 68.6383 16.9798 68.8912 16.9625C69.1394 16.9452 69.3061 16.9452 69.56 16.9452C69.814 16.9452 69.8428 16.9452 70.1013 16.9625C70.3599 16.9798 70.314 16.6527 70.1933 16.5641C70.0082 16.4282 70.0037 16.3119 69.8772 15.9617L68.4223 10.8023C68.3074 10.3727 68.1453 10.0882 68.0453 10.109C67.7293 10.1827 67.35 10.2667 67.3707 10.4798L67.396 11.0349L65.9227 15.9617C65.71 16.4742 65.6606 16.4616 65.5193 16.5963C65.3779 16.7334 65.3814 16.9798 65.579 16.9625C65.7767 16.9452 65.8525 16.9452 66.0502 16.9452C66.2433 16.9452 66.318 16.9452 66.5145 16.9625C66.7053 16.9798 66.7697 16.776 66.6708 16.6401C66.572 16.503 66.3962 16.4869 66.4801 15.9617L66.7846 15.0059C66.8593 14.7951 67.3546 14.8688 67.6063 14.8688C67.8603 14.8688 68.4361 14.7709 68.5407 15.0738Z" fill="black"/>
<path id="path8286" d="M63.6016 10.2893C63.9417 10.2893 64.3509 10.2732 64.9358 10.2376C65.753 10.1857 65.7702 10.2376 65.7702 10.4748C65.7702 10.6314 65.7886 11.3236 65.7886 11.5102C65.7886 11.6967 65.7702 12.0031 65.5909 12.0031C65.4162 12.0031 65.3427 11.7981 65.2369 11.5102C64.937 10.6948 64.6336 10.5762 64.4198 10.5762C64.2049 10.5762 64.1463 10.7466 64.1463 11.1889V15.9049C64.1509 16.4312 64.2049 16.4473 64.3669 16.5855C64.529 16.7191 64.4876 16.9575 64.2256 16.9403C63.9624 16.9229 63.8636 16.9229 63.6016 16.9229C63.3395 16.9229 63.2384 16.9229 62.9763 16.9403C62.7166 16.9576 62.6752 16.7191 62.8361 16.5855C63.0005 16.4473 63.0556 16.4312 63.0602 15.9049V11.1889C63.0602 10.7466 63.0005 10.5762 62.7856 10.5762C62.573 10.5762 62.2684 10.6948 61.9673 11.5102C61.8616 11.7981 61.7926 12.0031 61.6133 12.0031C61.4364 12.0031 61.418 11.6967 61.418 11.5102C61.418 11.3236 61.4363 10.6314 61.4363 10.4748C61.4363 10.2376 61.4535 10.1858 62.2719 10.2376C62.8568 10.2732 63.2637 10.2893 63.6016 10.2893Z" fill="black"/>
<path id="path8290" d="M70.9345 15.3284C70.9345 14.7088 71.3299 14.7941 71.5448 15.4126C71.7459 15.9907 72.0367 16.7197 72.8147 16.7197C73.5939 16.7197 73.7617 15.8203 73.7617 15.3792C73.7617 14.6836 73.4767 14.4463 72.4067 13.6494C71.3425 12.8513 71.1046 12.3411 71.1046 11.7123C71.1046 11.0857 71.7126 10.1011 72.6952 10.1011C73.1767 10.1011 73.4192 10.1425 73.6686 10.3314C73.7042 10.3567 74.034 10.3809 74.1007 10.2888C74.2007 10.1529 74.4053 10.3222 74.4053 10.5088C74.4053 10.6954 74.4053 11.5108 74.4225 11.7975C74.4386 12.0866 74.0893 12.295 73.9169 11.7814C73.7123 11.1894 73.5744 10.389 72.832 10.389C72.1953 10.389 72.0367 11.1468 72.0367 11.4428C72.0367 12.257 72.8481 12.5277 73.7272 13.1899C74.6099 13.8521 74.8386 14.14 74.8386 15.0568C74.8386 16.0587 73.8916 17.0929 72.832 17.0929C72.3746 17.0929 71.9999 16.8303 71.6287 16.8303C71.2586 16.8303 71.2805 16.9662 71.146 16.9662C71.0116 16.9662 70.8679 16.8556 70.9001 16.6184C70.9346 16.3811 70.9345 15.6924 70.9345 15.3284Z" fill="black"/>
</g>
</g>
</g>
<defs>
<clipPath id="clip0_64_4770">
<rect width="87" height="103" fill="white"/>
</clipPath>
</defs>
</svg>
